<?xml version="1.0" encoding="UTF-8" standalone="no"?><!DOCTYPE svg PUBLIC "-//W3C//DTD SVG 1.1//EN" "http://www.w3.org/Graphics/SVG/1.1/DTD/svg11.dtd"><svg width="100%" height="100%" viewBox="0 0 16 16" version="1.1" xmlns="http://www.w3.org/2000/svg" xmlns:xlink="http://www.w3.org/1999/xlink" xml:space="preserve" xmlns:serif="http://www.serif.com/" style="fill-rule:evenodd;clip-rule:evenodd;stroke-linejoin:round;stroke-miterlimit:2;"><g id="InteractiveGrid3D"><path d="M1,9.258l0,-6.258c-0,-1.097 0.903,-2 2,-2l10,-0c1.097,-0 2,0.903 2,2l0,10c0,1.097 -0.903,2 -2,2l-6.258,0l0.412,-1l5.846,0c0.549,0 1,-0.451 1,-1l0,-10c0,-0.549 -0.451,-1 -1,-1l-10,0c-0.549,0 -1,0.451 -1,1l0,5.846l-1,0.412Z" style="fill:#fc7f7f;"/><rect id="box" x="3" y="3" width="3" height="3" style="fill:#fc7f7f;"/><rect id="box1" serif:id="box" x="10" y="3" width="3" height="3" style="fill:#fc7f7f;"/><rect id="box2" serif:id="box" x="10" y="10" width="3" height="3" style="fill:#fc7f7f;"/><path id="Mouse" d="M8,8l-3.291,8l-0.947,-2.82l-1.883,1.883l-0.944,-0.942l1.885,-1.883l-2.82,-0.947l8,-3.291l-0,0Z" style="fill:#fc7f7f;fill-rule:nonzero;"/></g></svg>